PathFileType	4	(X/Y/Z)	/Users/niels/Desktop/University/Third Semester/Perception and Action/Exam/Gymnastics Motion Tracking/Code for Gym Tracking/Analyzed Data/Start Salto/stsalto_bad_id1_1_Sports2D/stsalto_bad_id1_1_Sports2D_px_person00.trc
DataRate	CameraRate	NumFrames	NumMarkers	Units	OrigDataRate	OrigDataStartFrame	OrigNumFrames
29.774436090225564	29.774436090225564	9	22	m	29.774436090225564	66	133
Frame#	Time	Hip			RHip			RKnee			RAnkle			RBigToe			RSmallToe			RHeel			LHip			LKnee			LAnkle			LBigToe			LSmallToe			LHeel			Neck			Head			Nose			RShoulder			RElbow			RWrist			LShoulder			LElbow			LWrist		
		X1	Y1	Z1	X2	Y2	Z2	X3	Y3	Z3	X4	Y4	Z4	X5	Y5	Z5	X6	Y6	Z6	X7	Y7	Z7	X8	Y8	Z8	X9	Y9	Z9	X10	Y10	Z10	X11	Y11	Z11	X12	Y12	Z12	X13	Y13	Z13	X14	Y14	Z14	X15	Y15	Z15	X16	Y16	Z16	X17	Y17	Z17	X18	Y18	Z18	X19	Y19	Z19	X20	Y20	Z20	X21	Y21	Z21	X22	Y22	Z22
66	2.216666666666667	1.331419313427717	-0.33556399869444636	0.0	1.3296432051192388	-0.3320978620131533	0.0	1.275607975829907	-0.20385123247407472	0.0	1.328639629394175	-0.07490199945335836	0.0	1.3372086080764272	-0.03841938094338936	0.0	1.3070611120572826	-0.03997944002639572	0.0	1.332414583962813	-0.07271397856467939	0.0	1.333185745610641	-0.33733014398780775	0.0	1.3273410747362253	-0.2009682075338218	0.0	1.4619964512278196	-0.15895358696836648	0.0	1.4700630662333456	-0.09944518864476898	0.0	1.4783069414304328	-0.13253718020105987	0.0	1.4813375069439563	-0.16653428118027197	0.0	1.1746899692405488	-0.40678873352237166	0.0	1.0892551145312406	-0.36452826405437183	0.0	1.1524533092394933	-0.3557614085260371	0.0	1.1894982616146312	-0.4080310129858372	0.0	1.2389541300709837	-0.33523397447281195	0.0	1.2074063095317378	-0.2526671214907746	0.0	1.1810601638539466	-0.4297416052150665	0.0	1.1375962981359933	-0.3750616891469393	0.0	1.128217610151648	-0.32414433320215263	0.0
67	2.250252525252525	1.3421511789103358	-0.339329524637635	0.0	1.34198649945932	-0.3358433635765832	0.0	1.3052509865093718	-0.20583131296407683	0.0	1.37508464389029	-0.09536739525120562	0.0	1.3793449362717232	-0.05547441685091665	0.0	1.3618734347553052	-0.0590068596457448	0.0	1.3790747098014093	-0.09412705706420639	0.0	1.3426824198429625	-0.3397163686888882	0.0	1.3431054099737474	-0.2037732668459952	0.0	1.4742151842284896	-0.1599499467597734	0.0	1.477716077230451	-0.10467246130157462	0.0	1.4967093866349759	-0.1535141640485543	0.0	1.4927997179579564	-0.16554799386815036	0.0	1.18088713403006	-0.40012625696687104	0.0	1.0995493840751642	-0.35484251265679445	0.0	1.1625971962212054	-0.3472019296751002	0.0	1.1950629681580633	-0.404339616132459	0.0	1.2467244462974034	-0.3353449717525779	0.0	1.2217834408390786	-0.2513218386264961	0.0	1.1861327237909913	-0.4247577221269469	0.0	1.1559132758930621	-0.3681181484221392	0.0	1.147558983811393	-0.3228998687373664	0.0
68	2.283838383838384	1.3526027418282467	-0.34295554167654185	0.0	1.3546897027950346	-0.3397489325420757	0.0	1.3364534486910609	-0.20863382077795037	0.0	1.4232517440713621	-0.12004009137753613	0.0	1.4233824906215702	-0.07580017655685402	0.0	1.4186877509351046	-0.08129986565933775	0.0	1.4280236374235207	-0.1204480525553806	0.0	1.3516693438678566	-0.34041693289623914	0.0	1.3582407762517887	-0.2075434685938547	0.0	1.4834987483897626	-0.16029356857230193	0.0	1.4829783175076816	-0.10903494798614805	0.0	1.515176799899897	-0.17576168616457866	0.0	1.5006858434716395	-0.16326427513411745	0.0	1.1872766746658252	-0.39275296123603437	0.0	1.1106607003126754	-0.3451558123947103	0.0	1.173230798542004	-0.33796678515999573	0.0	1.2014656522123925	-0.40057200302959045	0.0	1.2548546121045054	-0.3357946299091484	0.0	1.2363404979685844	-0.2502628610349604	0.0	1.1922705460865253	-0.41783486807906994	0.0	1.1813757283961996	-0.3595264118376025	0.0	1.1730185243390159	-0.3182422141056996	0.0
69	2.3174242424242424	1.3630463079356787	-0.3467401542651762	0.0	1.3671446945062258	-0.3440143740119207	0.0	1.364879076422779	-0.2118329635864807	0.0	1.4660459407797912	-0.14034861883310346	0.0	1.4637883191373897	-0.09156041397823121	0.0	1.4683293036461804	-0.09828433412669627	0.0	1.4723084397379644	-0.14241147145061156	0.0	1.3610440487912834	-0.34055518520026024	0.0	1.3763704140881456	-0.2132448887827318	0.0	1.4965121356540423	-0.16801841389504815	0.0	1.495402212763222	-0.12002859755159777	0.0	1.5395159643285241	-0.19907894404157625	0.0	1.5119835469073537	-0.1691469888924786	0.0	1.1939623307936844	-0.3851430123056769	0.0	1.1224683509053779	-0.3354333348257755	0.0	1.1846191907498504	-0.32898365767506554	0.0	1.208382416182579	-0.39650309959590435	0.0	1.2635055083205897	-0.3365325258870584	0.0	1.2510798590470003	-0.24928414539544608	0.0	1.199666417078913	-0.4094622858065382	0.0	1.2110473574257845	-0.3503713222225305	0.0	1.2030532765910404	-0.3090133032376582	0.0
70	2.351010101010101	1.3737036864390357	-0.35081956131875963	0.0	1.3785034717392992	-0.34866226949695245	0.0	1.3862019313109908	-0.21474188501149258	0.0	1.496448658763754	-0.14783979785104265	0.0	1.4921212110581816	-0.09458625089183842	0.0	1.501862558054923	-0.10124623104104133	0.0	1.5048364647175383	-0.15073042184146354	0.0	1.371635491207831	-0.34161411259905256	0.0	1.4009301506575962	-0.2220120452128987	0.0	1.5194700602202895	-0.19098699601326763	0.0	1.5237806699640086	-0.14556245330087317	0.0	1.5722594361923274	-0.22346198145726753	0.0	1.5332829993992332	-0.1925474242647057	0.0	1.2012023376386627	-0.377843140656156	0.0	1.1348411816545365	-0.3253217432676126	0.0	1.1969066179792858	-0.32094327462717354	0.0	1.2153586115356674	-0.39183169742994983	0.0	1.2726688713947962	-0.33745087886093184	0.0	1.265992283061191	-0.2483535370824445	0.0	1.2082616010830276	-0.40055089194021604	0.0	1.2402807018960418	-0.34189278389560496	0.0	1.2346821982685683	-0.2954086743966287	0.0
71	2.3845959595959596	1.3847145001131351	-0.3551667285933976	0.0	1.3884252780103812	-0.3534073186359314	0.0	1.4004049834495835	-0.21684070057881127	0.0	1.5144224537689053	-0.14213327069571077	0.0	1.5075001382322808	-0.08437971673787908	0.0	1.5194121101025753	-0.08998858574289643	0.0	1.525284355616758	-0.14474637720878097	0.0	1.38359082615934	-0.34478948781658886	0.0	1.431652991284267	-0.23443226251262106	0.0	1.5519565766054264	-0.2291889343599314	0.0	1.567329926631671	-0.18616974900951122	0.0	1.6093147535399088	-0.24922400188768393	0.0	1.5645464327755565	-0.23375628132691234	0.0	1.2092829413880584	-0.3712136449675184	0.0	1.1477227523779003	-0.3144074269149275	0.0	1.2100114775066395	-0.3138376751830406	0.0	1.222392277924544	-0.3862605078400728	0.0	1.2823283496431548	-0.3383012901952768	0.0	1.2811139237028661	-0.24755214699271336	0.0	1.2174932018211913	-0.39225255492865163	0.0	1.2653656421384987	-0.33546403675784714	0.0	1.2647839106255214	-0.2800108178463577	0.0
72	2.4181818181818184	1.3959350680114542	-0.35975358647649563	0.0	1.3972902905537323	-0.35780503142771997	0.0	1.4116590559167703	-0.21814565127213587	0.0	1.526605067496851	-0.1310902221962833	0.0	1.5171939517201516	-0.0686731894775644	0.0	1.5297341143927417	-0.07323977839834807	0.0	1.5398747353708928	-0.13260064513873718	0.0	1.3962449161776995	-0.35047493474515273	0.0	1.4642493893220045	-0.25003767021305445	0.0	1.587019287549559	-0.2742196746019895	0.0	1.6155749764325302	-0.23394649500687634	0.0	1.6439801787963104	-0.2762920059470624	0.0	1.5990660632548301	-0.28324362904998557	0.0	1.2181706068047857	-0.3653890000636686	0.0	1.1610759717370844	-0.30283851043825183	0.0	1.2236467661013282	-0.3072627964133038	0.0	1.2299438050536822	-0.37968945192733966	0.0	1.2924192272411368	-0.3387225111879582	0.0	1.2963412828475949	-0.2469715500343185	0.0	1.2262670603305674	-0.38560565424304455	0.0	1.2847162837608925	-0.3322164091711777	0.0	1.2902443091029125	-0.2671113376232134	0.0
73	2.451767676767677	1.406974919584125	-0.3646022439333864	0.0	1.4059239082448411	-0.3616950351809971	0.0	1.424288978756575	-0.21935837057078356	0.0	1.5397477053212378	-0.12315935392993642	0.0	1.5286296661617285	-0.056119059301440656	0.0	1.5417599897058636	-0.06044314676237492	0.0	1.5549826386617265	-0.12314550838807402	0.0	1.4087194393989664	-0.35813058195562575	0.0	1.494146865754404	-0.2674938136748711	0.0	1.6178390028966099	-0.31690974247790127	0.0	1.657960136903694	-0.2796316122088923	0.0	1.6723241896972594	-0.30361064258975573	0.0	1.6300054532117356	-0.33034947656336017	0.0	1.2274954896373478	-0.3602744826941215	0.0	1.1748271728377309	-0.2913772871534073	0.0	1.2375478132266906	-0.30093435768231175	0.0	1.2383290902856836	-0.3723989782388592	0.0	1.302784874197678	-0.33847096800197146	0.0	1.3114599773423103	-0.2467728176558902	0.0	1.2336300364098638	-0.3809118373354192	0.0	1.2983935556237551	-0.332279175244002	0.0	1.308141986208278	-0.2603136854254637	0.0
74	2.4853535353535356	1.417479303562968	-0.3696727861910192	0.0	1.4151049950227828	-0.3654416096713545	0.0	1.4403267350498057	-0.22170367175850159	0.0	1.5568674617276972	-0.12267169095640983	0.0	1.544987627774875	-0.051896141743447005	0.0	1.559835445127749	-0.05685829007608894	0.0	1.5734456253135387	-0.12127985815050857	0.0	1.4204939887040082	-0.3666063424986435	0.0	1.5190472805430346	-0.2850296559570101	0.0	1.6417765450096282	-0.3523539080910007	0.0	1.690207794857505	-0.3176267568636143	0.0	1.6938897407328812	-0.3291695319685421	0.0	1.6544965635065756	-0.36921052299117113	0.0	1.2368571649284799	-0.3555609667397942	0.0	1.1887943881270284	-0.2809320656209336	0.0	1.2514861683504388	-0.2949074589507928	0.0	1.2473372586705835	-0.36493845186764307	0.0	1.313197432057961	-0.33771694805307545	0.0	1.3263308684101462	-0.24729614539048633	0.0	1.2394306044628658	-0.37753840351921913	0.0	1.3072188673380356	-0.3348146211761594	0.0	1.3162648723932997	-0.2611429696739792	0.0
